<svg xmlns="http://www.w3.org/2000/svg" version="1.1" xmlns:xlink="http://www.w3.org/1999/xlink" xmlns:svgjs="http://svgjs.dev/svgjs" width="1000" height="1000" viewBox="0 0 1000 1000"><rect width="1000" height="1000" fill="#1d366f"></rect><g transform="matrix(0.7,0,0,0.7,150,281.25)"><svg viewBox="0 0 576 360" data-background-color="#1d366f" preserveAspectRatio="xMidYMid meet" height="625" width="1000" xmlns="http://www.w3.org/2000/svg" xmlns:xlink="http://www.w3.org/1999/xlink"><g id="tight-bounds" transform="matrix(1,0,0,1,0,0)"><svg viewBox="0 0 576 360" height="360" width="576"><g><svg></svg></g><g><svg viewBox="0 0 576 360" height="360" width="576"><g><path xmlns="http://www.w3.org/2000/svg" d="M132.115 90l155.885-90 155.885 90v180l-155.885 90-155.885-90zM143.822 263.241l144.178 83.242 144.178-83.242v-166.482l-144.178-83.242-144.178 83.242z" fill="#ffffff" fill-rule="nonzero" stroke="none" stroke-width="1" stroke-linecap="butt" stroke-linejoin="miter" stroke-miterlimit="10" stroke-dasharray="" stroke-dashoffset="0" font-family="none" font-weight="none" font-size="none" text-anchor="none" style="mix-blend-mode: normal" data-fill-palette-color="tertiary"></path></g><g transform="matrix(1,0,0,1,172.8,115.0959871589085)"><svg viewBox="0 0 230.4 129.808025682183" height="129.808025682183" width="230.4"><g><svg viewBox="0 0 230.4 129.808025682183" height="129.808025682183" width="230.4"><g><svg viewBox="0 0 230.4 129.808025682183" height="129.808025682183" width="230.4"><g><svg viewBox="0 0 230.4 129.808025682183" height="129.808025682183" width="230.4"><g id="textblocktransform"><svg viewBox="0 0 230.4 129.808025682183" height="129.808025682183" width="230.4" id="textblock"><g><svg viewBox="0 0 230.4 129.808025682183" height="129.808025682183" width="230.4"><g transform="matrix(1,0,0,1,0,0)"><svg width="230.4" viewBox="5.199999809265137 -34.70000076293945 62.29999923706055 35.10000228881836" height="129.808025682183" data-palette-color="#ffffff"><path d="M28.6-1.65L29.45 0Q28.8 0.4 27.75 0.4L27.75 0.4Q25.7 0.4 24.4-1.35L24.4-1.35 18.35-9.7Q16.7-11.95 15.18-12.93 13.65-13.9 11.55-14.15L11.55-14.15 11.55-16 15.45-16Q19-16 21.2-18.23 23.4-20.45 23.4-24.1L23.4-24.1Q23.4-27.65 21.3-29.93 19.2-32.2 16-32.2L16-32.2 7.3-32.2 7.3 0 5.2 0 5.2-34.2 16.2-34.2Q18.85-34.2 20.98-32.9 23.1-31.6 24.3-29.33 25.5-27.05 25.5-24.15L25.5-24.15Q25.5-20.1 23.35-17.57 21.2-15.05 17.6-14.8L17.6-14.8Q15.9-14.7 14.95-14.7L14.95-14.7Q16.25-14.5 16.9-14.15 17.55-13.8 18.25-12.9L18.25-12.9Q19.85-10.8 22.25-7.58 24.65-4.35 26.05-2.4L26.05-2.4Q26.7-1.5 27.7-1.5L27.7-1.5Q28.3-1.5 28.6-1.65L28.6-1.65ZM36.4-34.7L36.65-34.7 51.75-15.6 67.25-34.7 67.5-34.7 67.5-0.05 65.4-0.05 65.4-22.95Q65.4-24.65 65.62-27.15 65.85-29.65 66.1-30.75L66.1-30.75Q63.95-27.65 59.45-21.9 54.95-16.15 51.9-12.9L51.9-12.9 51.15-13.7Q47.2-17.8 42.75-23.3L42.75-23.3Q41.55-24.85 40.15-26.88 38.75-28.9 37.8-30.6L37.8-30.6Q38.5-25.15 38.5-22.95L38.5-22.95 38.5-0.05 36.4-0.05 36.4-34.7Z" opacity="1" transform="matrix(1,0,0,1,0,0)" fill="#ffffff" class="undefined-text-0" data-fill-palette-color="primary" id="text-0"></path></svg></g></svg></g></svg></g></svg></g><g></g></svg></g></svg></g></svg></g></svg></g><defs></defs></svg><rect width="576" height="360" fill="none" stroke="none" visibility="hidden"></rect></g></svg></g></svg>