<svg xmlns="http://www.w3.org/2000/svg" version="1.1" xmlns:xlink="http://www.w3.org/1999/xlink" xmlns:svgjs="http://svgjs.dev/svgjs" width="1000" height="1000" viewBox="0 0 1000 1000"><rect width="1000" height="1000" fill="#000000"></rect><g transform="matrix(0.7,0,0,0.7,150.61877197147163,146.08680161943317)"><svg viewBox="0 0 244 247" data-background-color="#ffffff" preserveAspectRatio="xMidYMid meet" height="1012" width="1000" xmlns="http://www.w3.org/2000/svg" xmlns:xlink="http://www.w3.org/1999/xlink"><g id="tight-bounds" transform="matrix(1,0,0,1,-0.2156859704701617,-0.09999999999999432)"><svg viewBox="0 0 244.43135999999998 247.2" height="247.2" width="244.43135999999998"><g><svg></svg></g><g><svg viewBox="0 0 244.43135999999998 247.2" height="247.2" width="244.43135999999998"><g transform="matrix(1,0,0,1,0,75.1492404454343)"><svg viewBox="0 0 244.43135999999998 96.90151910913139" height="96.90151910913139" width="244.43135999999998"><g><svg viewBox="0 0 244.43135999999998 96.90151910913139" height="96.90151910913139" width="244.43135999999998"><g><svg viewBox="0 0 244.43136 96.9015191091314" height="96.90151910913139" width="244.43135999999998"><g><svg viewBox="0 0 244.43136 96.9015191091314" height="96.9015191091314" width="244.43136"><g id="textblocktransform"><svg viewBox="0 0 244.43136 96.9015191091314" height="96.9015191091314" width="244.43136" id="textblock"><g><svg viewBox="0 0 244.43136 96.9015191091314" height="96.9015191091314" width="244.43136"><g transform="matrix(1,0,0,1,0,0)"><svg width="244.43136" viewBox="4.150000095367432 -35.599998474121094 89.79999542236328 35.599998474121094" height="96.9015191091314" data-palette-color="#398378"><path d="M35.15 0L26.45 0 19.7-9.75 19.3-9.75 12.25-9.75 12.25 0 4.15 0 4.15-35 19.3-35Q23.95-35 27.38-33.45 30.8-31.9 32.65-29.05 34.5-26.2 34.5-22.3L34.5-22.3Q34.5-18.4 32.63-15.58 30.75-12.75 27.3-11.25L27.3-11.25 35.15 0ZM26.3-22.3Q26.3-25.25 24.4-26.83 22.5-28.4 18.85-28.4L18.85-28.4 12.25-28.4 12.25-16.2 18.85-16.2Q22.5-16.2 24.4-17.8 26.3-19.4 26.3-22.3L26.3-22.3ZM80.85-35.6Q87.05-35.6 90.5-31.98 93.95-28.35 93.95-21.5L93.95-21.5 93.95 0 85.85 0 85.85-21.25Q85.85-24.95 83.92-26.83 82-28.7 78.85-28.7L78.85-28.7Q75.4-28.7 73.35-26.73 71.3-24.75 71.3-20.75L71.3-20.75 71.3 0 63.2 0 63.2-21.25Q63.2-24.95 61.4-26.83 59.6-28.7 56.5-28.7L56.5-28.7Q53.1-28.7 51.05-26.73 49-24.75 49-20.75L49-20.75 49 0 40.9 0 40.9-35 48.75-35 48.75-30.7Q50.35-33.05 53-34.33 55.65-35.6 59.1-35.6L59.1-35.6Q62.7-35.6 65.4-34.27 68.1-32.95 69.55-30.45L69.55-30.45Q71.35-32.95 74.27-34.27 77.2-35.6 80.85-35.6L80.85-35.6Z" opacity="1" transform="matrix(1,0,0,1,0,0)" fill="#ffffff" class="undefined-text-0" data-fill-palette-color="primary" id="text-0"></path></svg></g></svg></g></svg></g></svg></g><g></g></svg></g></svg></g></svg></g><path d="M0 69.149L0 1 244.431 1 244.431 69.149 235.693 69.149 235.693 9.739 8.739 9.739 8.739 69.149 0 69.149M0 178.051L0 246.2 244.431 246.2 244.431 178.051 235.693 178.051 235.693 237.461 8.739 237.461 8.739 178.051 0 178.051" fill="#ffffff" stroke="transparent" data-fill-palette-color="primary"></path></svg></g><defs></defs></svg><rect width="244.43135999999998" height="247.2" fill="none" stroke="none" visibility="hidden"></rect></g></svg></g></svg>